# xmcd
#
# Track frame offsets: 
#        150
#        25001
#        40775
#        59960
#        85337
#        96231
#        112053
#        132024
#        148775
#        167591
#        189223
#        211583
#        229811
#        251902
#        268106
#        281948
#        291797
#        308689
#
# Disc length: 4346 seconds
#
# Revision: 0
# Processed by: cddbd v1.5.2PL0 Copyright (c) Steve Scherf et al.
# Submitted via: ExactAudioCopy v0.99pb5
#
DISCID=0d10f812
DTITLE=Иосиф Кобзон - Поклонимся великим тем годам
DYEAR=2002
DGENRE=Vocal
TTITLE0=Поклонимся великим тем годам
TTITLE1=Холмы
TTITLE2=За того парня
TTITLE3=Песня командира
TTITLE4=Это мы
TTITLE5=Горячий снег
TTITLE6=Сыновья
TTITLE7=Малая земля
TTITLE8=Баллада о знамени
TTITLE9=Баллада о красках
TTITLE10=Наш медсанбат
TTITLE11=Ваня
TTITLE12=Бери шинель
TTITLE13=Где-то далеко
TTITLE14=Мгновения
TTITLE15=Зависть
TTITLE16=С днем рождения, Победа
TTITLE17=День Победы
EXTD=
EXTT0=
EXTT1=
EXTT2=
EXTT3=
EXTT4=
EXTT5=
EXTT6=
EXTT7=
EXTT8=
EXTT9=
EXTT10=
EXTT11=
EXTT12=
EXTT13=
EXTT14=
EXTT15=
EXTT16=
EXTT17=
PLAYORDER=
